<svg xmlns="http://www.w3.org/2000/svg"><defs><symbol id="feature_visualization" viewBox="0 0 48 48"><path d="M42.93 34.493a1.407 1.407 0 01-.686 1.205l-16.785 9.933a1.889 1.889 0 01-1.918 0L6.756 35.699a1.401 1.401 0 010-2.41l4.352-2.576.785.465-4.73 2.799a.601.601 0 00.001 1.034l4.898 2.898a28.746 28.746 0 016.334-2.883l.943.558a28.703 28.703 0 00-6.494 2.788l11.103 6.57a1.08 1.08 0 001.104 0l9.578-5.668-5.643-3.291.789-.467 5.642 3.292 5.06-2.995a34.197 34.197 0 00-6.246-1.388l-2.154-.272 1.122-.664 1.132.143a34.613 34.613 0 017.065 1.637l.439-.26a.6.6 0 000-1.031l-4.73-2.8.786-.465 4.351 2.575a1.405 1.405 0 01.687 1.205zm0-10a1.407 1.407 0 01-.686 1.205l-16.785 9.933a1.889 1.889 0 01-1.918 0L6.756 25.699a1.401 1.401 0 010-2.41l5.18-3.065.785.464-5.557 3.289a.601.601 0 000 1.034l2.076 1.228 6.477-3.778.788.467-6.476 3.778 10.723 6.345 18.34-10.698-2.813-1.664.785-.465 5.18 3.064a1.405 1.405 0 01.686 1.205zm-.8 0a.6.6 0 00-.294-.515L39.88 22.82 21.54 33.517l2.408 1.424a1.08 1.08 0 001.104.001l16.784-9.932a.604.604 0 00.294-.517zm-36.06-11a1.405 1.405 0 01.686-1.205l16.785-9.932a1.89 1.89 0 011.918 0l16.784 9.932a1.4 1.4 0 010 2.41L25.46 24.631a1.889 1.889 0 01-1.918 0L6.756 14.699a1.41 1.41 0 01-.687-1.206zM19.814 5.49a50.784 50.784 0 015.337 3.885 1.83 1.83 0 01.665 1.472 7.274 7.274 0 01-.572 2.175 5.718 5.718 0 00-.323 1.026c0 .517.637.891 1.312 1.289.831.488 1.774 1.043 1.774 2.087a2.587 2.587 0 01-1.052 1.782 2.56 2.56 0 00-1.056 1.8 4.565 4.565 0 00.87 1.302c.107.132.22.279.332.421l14.734-8.72a.6.6 0 000-1.031L25.052 3.044v.001a1.09 1.09 0 00-1.105 0zM6.869 13.493a.606.606 0 00.295.518l16.784 9.93a1.08 1.08 0 001.104.001l1.356-.802c-.088-.11-.178-.228-.262-.332-.607-.758-1.046-1.305-1.046-1.801a3.297 3.297 0 011.298-2.374c.435-.423.81-.788.81-1.21 0-.585-.67-.98-1.38-1.397-.8-.47-1.706-1.004-1.706-1.978a4.54 4.54 0 01.372-1.303 6.997 6.997 0 00.524-1.898 1.04 1.04 0 00-.38-.859 50.283 50.283 0 00-5.593-4.042l-11.881 7.03a.603.603 0 00-.295.517zM18.6 11.5a.9.9 0 11.9.9.901.901 0 01-.9-.9zm.8 0c0 .11.2.11.2 0a.1.1 0 00-.2 0zm-2.03 4a1.13 1.13 0 111.13 1.142 1.138 1.138 0 01-1.13-1.142zm.8 0a.33.33 0 10.33-.34.336.336 0 00-.33.34zm12.2-2a1.13 1.13 0 111.13 1.142 1.138 1.138 0 01-1.13-1.142zm.8 0a.33.33 0 10.33-.34.336.336 0 00-.33.34z"/></symbol><symbol id="feature_maps-and-data" viewBox="0 0 48 48"><path d="M20.1 11.1v28.8h27.8V11.1zm9.782 28H20.9V11.9h21.707l-.176.577a1.268 1.268 0 01-.501.55c-1.222.577-2.623 1.376-2.623 2.442a1.647 1.647 0 00.27.85.91.91 0 01.168.46c0 .23-.16.377-.442.617a1.932 1.932 0 00-.659.832 1.241 1.241 0 00-.064.395 2.816 2.816 0 00.063.486c.036.185.101.53.03.61-.028.031-.154.08-.442.06a1.468 1.468 0 00-.96.518 1.127 1.127 0 00-.335.883l.021.102c.186.908.288 1.759-.499 2.185a2.68 2.68 0 00-1.016 1.163c-.299.531-.444.731-.784.731a.889.889 0 01-.536-.259 1.622 1.622 0 00-1.018-.42 1.279 1.279 0 00-1.225 1.322c0 .508-.456 1.444-1.106 1.444-.537 0-.718-.201-.832-.404-.297-.533-.667-1.197-1.498-1.197a1.57 1.57 0 00-1.517 1.615 2.608 2.608 0 00.11.706 1.905 1.905 0 01.084.507 1.43 1.43 0 01-.242.706 2.158 2.158 0 00-.34 1.092 1.16 1.16 0 001.225 1.079 2.188 2.188 0 00.863-.185 1.096 1.096 0 01.602-.108c.169.016.272.38.272.573 0 .352-.289.639-.623.973a1.859 1.859 0 00-.646 2.361c.214.427.751.553 1.27.674.67.156.97.266.97.507a2.106 2.106 0 00.109.609.754.754 0 01.055.314 1.721 1.721 0 01-.274.403 1.867 1.867 0 00-.534 1.15 1.126 1.126 0 00.055.277zm17.218 0H35.308c.055-.122.11-.244.168-.366a3.208 3.208 0 00.424-1.275v-.28l-.263-.096a1.872 1.872 0 01-.294-.13v-.002a1.042 1.042 0 00.128-.465c0-.314.2-.457.69-.732a1.663 1.663 0 001.094-1.428 1.038 1.038 0 00-.268-.657c-.068-.088-.1-.133-.1-.165 0-.248.141-.401.39-.651a1.66 1.66 0 00.623-1.214v-.762a.546.546 0 01.316-.465.911.911 0 01.63.093 1.998 1.998 0 00.742.173 1.64 1.64 0 001.33-.91c.279-.397.427-.57.676-.57.169 0 .234.069.437.458a2.42 2.42 0 00.533.755 3.178 3.178 0 002.078.883 1.837 1.837 0 00.808-.251 1.279 1.279 0 01.451-.166 3.998 3.998 0 00.998-.275l.201-.067zm0-9.408c-.152.05-.307.101-.456.152-.279.094-.66.222-.743.232a1.83 1.83 0 00-.807.25 1.286 1.286 0 01-.452.167 2.453 2.453 0 01-1.55-.682 1.776 1.776 0 01-.352-.524 1.283 1.283 0 00-1.146-.89 1.64 1.64 0 00-1.33.91c-.28.397-.427.57-.676.57a1.317 1.317 0 01-.457-.12 1.647 1.647 0 00-1.14-.112 1.328 1.328 0 00-.89 1.232v.762c0 .246-.142.4-.39.65a1.661 1.661 0 00-.624 1.215 1.031 1.031 0 00.267.654c.07.09.102.135.102.168 0 .313-.2.456-.688.73a1.663 1.663 0 00-1.097 1.43.605.605 0 01-.049.12.749.749 0 00-.067.636.93.93 0 00.5.463c-.068.194-.199.469-.302.687-.106.224-.214.465-.311.708h-3.735a8.018 8.018 0 00-.046-.183c-.017-.063-.032-.122-.035-.094a1.243 1.243 0 01.358-.65 2.22 2.22 0 00.407-.643 1.266 1.266 0 00-.044-.8 1.413 1.413 0 01-.077-.383c0-.915-.955-1.139-1.587-1.286a2.099 2.099 0 01-.737-.253c-.301-.603-.051-.892.495-1.437a2.208 2.208 0 00.858-1.539c0-.491-.269-1.297-.99-1.369a1.9 1.9 0 00-.974.158 1.392 1.392 0 01-.572.13c-.2 0-.425-.114-.425-.278a1.43 1.43 0 01.243-.71 2.159 2.159 0 00.339-1.088 2.65 2.65 0 00-.11-.71 1.884 1.884 0 01-.084-.503.775.775 0 01.717-.814c.327 0 .495.239.815.813a1.594 1.594 0 001.515.788c1.164 0 1.906-1.33 1.906-2.245a.496.496 0 01.425-.522.889.889 0 01.535.258 1.62 1.62 0 001.02.422c.839 0 1.194-.632 1.48-1.14a2.006 2.006 0 01.7-.852c1.374-.743 1.055-2.3.902-3.049l-.018-.06a1.039 1.039 0 01.452-.484 1.285 1.285 0 001.096-.326 1.468 1.468 0 00.158-1.292 1.972 1.972 0 01-.05-.336.429.429 0 01.024-.14 1.318 1.318 0 01.42-.478 1.586 1.586 0 00.722-1.226 1.655 1.655 0 00-.271-.853.907.907 0 01-.167-.457c0-.318.375-.872 2.165-1.719a2.003 2.003 0 00.924-1.04l.247-.81H47.1zM12.1 29h.8v4.9H.1V21.1H3v.8H.9v2.69a9.73 9.73 0 012.291.767l-.382.704a8.596 8.596 0 00-1.91-.648V33.1h1.266a5.817 5.817 0 01-.065-.754 16.759 16.759 0 01.778-4.846l.767.23a15.963 15.963 0 00-.745 4.616 5.426 5.426 0 00.073.754h6.038c-.085-1.532-.557-1.617-1.104-1.692a1.351 1.351 0 01-1.282-.85 1.227 1.227 0 01-.089-.478c0-.012.06-1.18.495-1.396l.259-.05a1.253 1.253 0 01.808.379c.158.133.262.214.356.214a.705.705 0 00.486-.417l.704.38a1.509 1.509 0 01-1.065.828l-.125.01a1.349 1.349 0 01-.87-.402 2.89 2.89 0 00-.147-.117 3.974 3.974 0 00-.101.573.453.453 0 00.032.178c.096.256.215.297.648.356.886.121 1.679.432 1.791 2.484H12.1zm.8-12.9H18v.8h-5.9v-3h-3V9.1h7v-2h4V5.9H5.9v20.2H18v.8H5.1V5.1h21.8V9h-.8V5.9h-5.2v2h-4v2h-7v3.2h3zm-2.8 3v2h-2v3.8h4.8v-2h2v-3.8zm4 3h-2v2H8.9v-2.2h2v-2h3.2z"/></symbol><symbol id="feature_geocoding" viewBox="0 0 48 48"><path d="M16.769 7.167l.097.793c-.153.02-.307.041-.46.065a10.126 10.126 0 00-8.431 8.745l-.02.16-.795-.083.019-.164a10.933 10.933 0 019.101-9.448c.163-.026.325-.048.489-.069zm30.426 35.94a1.727 1.727 0 01-.508 1.229l-2.351 2.349a1.74 1.74 0 01-2.458 0L29.387 34.194l1.06-1.061-3.355-3.355a14.953 14.953 0 112.686-2.687l3.354 3.354 1.06-1.062 12.495 12.495a1.727 1.727 0 01.508 1.229zM18 32.1A14.1 14.1 0 103.9 18 14.116 14.116 0 0018 32.1zm13.012.467l1.554-1.556-3.253-3.253-1.555 1.555zm15.383 10.54a.93.93 0 00-.275-.664L34.192 30.515l-3.674 3.679L42.444 46.12a.94.94 0 001.326 0l2.35-2.35a.93.93 0 00.275-.663z"/></symbol><symbol id="feature_directions" viewBox="0 0 48 48"><path d="M40 1c-3.805 0-5.9 1.474-5.9 4.147v11.415L40 22.46l5.9-5.9V5.148C45.9 2.474 43.805 1 40 1zm5.1 15.23l-5.1 5.1-5.1-5.1V5.146c0-2.22 1.716-3.346 5.1-3.346s5.1 1.126 5.1 3.346zM40 5a2.9 2.9 0 102.9 2.9A2.904 2.904 0 0040 5zm0 5a2.1 2.1 0 112.1-2.1A2.102 2.102 0 0140 10zM9 23c-3.805 0-5.9 1.474-5.9 4.147v11.415L9 44.46l5.9-5.9V27.148C14.9 24.474 12.805 23 9 23zm5.1 15.23L9 43.33l-5.1-5.1V27.146c0-2.22 1.716-3.346 5.1-3.346s5.1 1.126 5.1 3.346zM9 27a2.9 2.9 0 102.9 2.9A2.904 2.904 0 009 27zm0 5a2.1 2.1 0 112.1-2.1A2.102 2.102 0 019 32zm21-10.9h4v.8h-4zM24.1 41h.8v2.9H22v-.8h2.1zm0-7h.8v4h-.8zm0-12.9H27v.8h-2.1V24h-.8zm0 5.9h.8v4h-.8zM15 43.1h4v.8h-4z"/></symbol><symbol id="feature_demographics" viewBox="0 0 48 48"><path d="M29.824 21.27a14.509 14.509 0 001.076-5.11c0-2.471 0-9.035-6.9-9.035s-6.9 6.564-6.9 9.035a14.509 14.509 0 001.076 5.109c-2.081.722-3.076 2.354-3.076 5.069a76.689 76.689 0 00.999 13.238l.063.323h15.676l.063-.323a76.689 76.689 0 001-13.238c0-2.715-.996-4.347-3.077-5.07zm-10.89-.257a13.89 13.89 0 01-1.034-4.852c0-4.072.725-8.235 6.1-8.235s6.1 4.163 6.1 8.235a13.89 13.89 0 01-1.034 4.852l-.016.044c-.134-.029-.261-.064-.403-.087l.004-.028-1.75-.258v-1.26a7.331 7.331 0 002.007-4.913l-.015-.424-.205-.108a8.93 8.93 0 01-3.404-3.713l-.299-.517-.364.472a8.853 8.853 0 01-5.227 3.712l-.28.152-.022.426a7.331 7.331 0 002.008 4.913v1.26l-1.751.258.004.028c-.142.023-.27.058-.403.087zM24 20.15c-1.565 0-4.046-2.518-4.106-5.526a9.154 9.154 0 004.999-3.448 9.255 9.255 0 003.214 3.395c-.032 3.032-2.533 5.58-4.107 5.58zm-2.1 1.225V20.14a3.638 3.638 0 002.1.81 3.638 3.638 0 002.1-.81v1.234l1.393.206A34.749 34.749 0 0024 25.575a34.749 34.749 0 00-3.493-3.995zM31.174 39.1H16.826a79.424 79.424 0 01-.926-12.76c0-2.79 1.067-4.168 3.559-4.584 1.082.695 3.394 3.616 4.22 4.722l.321.428.32-.428c.827-1.106 3.138-4.027 4.221-4.722 2.492.416 3.559 1.794 3.559 4.584a79.424 79.424 0 01-.926 12.761zM42.9 21.114v-1.717a7.236 7.236 0 001.876-2.894 2.767 2.767 0 001.041-1.756 6.213 6.213 0 00-.808-4.132l-.192-.288a3.937 3.937 0 00-3.144-2.137 4.402 4.402 0 00-3.966 1.001 1.292 1.292 0 00-.757.021c-1.786.519-2.674 2.703-2.813 3.957a3.935 3.935 0 001.188 3.544 7.268 7.268 0 001.775 2.654v1.754a5.775 5.775 0 00-3.692 1.113l.526.602a5.017 5.017 0 013.212-.931 3.038 3.038 0 005.707 0c3.935.103 4.247 1.966 4.247 4.567V37.1H34v.8h13.9V26.472c0-2.641-.406-5.214-5-5.358zm-7.968-7.855c.122-1.095.919-2.895 2.24-3.278a.81.81 0 01.219-.037.146.146 0 01.101.026l.299.305.285-.317a3.57 3.57 0 013.464-.979 3.185 3.185 0 012.61 1.79l.197.294a5.479 5.479 0 01.685 3.53 2.254 2.254 0 01-.42.976c-.869-2.242-1.065-2.86-1.067-2.866l-.11-.351-.36.08c-.03.007-3.192.695-5.243-.914l-.42-.33-.2.497a6.7 6.7 0 01-.548 1.093 12.098 12.098 0 00-1.217 2.93 3.516 3.516 0 01-.515-2.45zm1.146 3.184a12.701 12.701 0 011.26-3.235 6.827 6.827 0 00.418-.766 7.842 7.842 0 005.14.835c.148.42.472 1.303 1.122 2.974-.722 2.203-2.9 3.85-4.002 3.85-1.06 0-3.15-1.533-3.938-3.658zM40 23.1c-.737 0-2.1-.66-2.1-1.6v-1.458a3.944 3.944 0 002.116.858 3.885 3.885 0 002.084-.83v1.43c0 .94-1.363 1.6-2.1 1.6zM7.402 25.9h.196c1.314 0 4.302-1.286 4.302-3.405v-.314a3.121 3.121 0 011.554 1.424l.701-.385a3.894 3.894 0 00-3.588-2.12.7.7 0 01-.113-.02 6.811 6.811 0 003.322-7.242A5.93 5.93 0 007.531 9.1a5.931 5.931 0 00-6.238 4.713 6.812 6.812 0 003.302 7.258.763.763 0 01-.158.029c-2.625 0-4.268 1.997-4.4 5.356a52.142 52.142 0 001.008 11.128l.068.316H14v-.8H1.764a50.769 50.769 0 01-.928-10.612c.045-1.152.377-3.556 2.264-4.335v.342c0 2.119 2.988 3.405 4.302 3.405zm-3.444-9.76a5.454 5.454 0 01-.063-1 4.01 4.01 0 013.6-1.434l.037.004.038-.004a4.022 4.022 0 013.6 1.433 5.533 5.533 0 01-.065 1C10.74 18.475 8.928 20.1 7.532 20.1s-3.207-1.626-3.574-3.96zm-1.882-2.163C2.61 11.424 4.65 9.9 7.531 9.9c2.894 0 4.935 1.532 5.461 4.099A5.998 5.998 0 019.9 20.475v-.591a5.98 5.98 0 001.996-3.62 6.34 6.34 0 00.068-1.284l-.006-.117-.067-.095a4.804 4.804 0 00-4.359-1.862 4.814 4.814 0 00-4.358 1.862l-.068.095-.005.116a6.221 6.221 0 00.066 1.285A5.997 5.997 0 005.1 19.829v.612a6.003 6.003 0 01-3.024-6.464zm2.364 7.922A1.437 1.437 0 005.9 20.5v-.095a3.374 3.374 0 001.632.495 3.333 3.333 0 001.568-.457v.057a1.403 1.403 0 001.405 1.4h.057a3.707 3.707 0 01.538.063v.532c0 1.504-2.454 2.603-3.58 2.603h-.002l-.116.002C6.357 25.1 3.9 24 3.9 22.495v-.56a4.02 4.02 0 01.54-.036z"/></symbol><symbol id="feature_spatial-analysis" viewBox="0 0 48 48"><path d="M43.5 21.1a3.376 3.376 0 00-2.035.695L32.15 9.605A3.394 3.394 0 1026.1 7.5a3.364 3.364 0 00.658 1.985l-5.581 10.063A3.36 3.36 0 0019.5 19.1a3.392 3.392 0 00-3.333 4.063l-8.574 3.943a3.4 3.4 0 10-.782 3.881L24.17 36.85a3.391 3.391 0 106.712.836l10.52-10.52a3.364 3.364 0 002.099.735 3.4 3.4 0 000-6.8zm-3.36 2.958l-17.281-1.92a3.34 3.34 0 00-1.041-2.096l5.513-9.94c.035.029.06.065.097.093a3.362 3.362 0 004.149-.022l9.305 12.177a3.372 3.372 0 00-.742 1.708zM29.5 4.9a2.603 2.603 0 012.6 2.6 2.573 2.573 0 01-.826 1.9 2.65 2.65 0 01-3.358.162A2.6 2.6 0 0129.5 4.9zm-10 15a2.575 2.575 0 011.584.538A2.584 2.584 0 0122.1 22.5c0 .073-.003.146-.009.218A2.6 2.6 0 1119.5 19.9zm-3.076 4.025a3.385 3.385 0 006.435-.983l17.27 1.92a3.357 3.357 0 00.65 1.677c.017.022.04.038.057.06L30.783 36.65A3.365 3.365 0 0027.5 34.1a3.398 3.398 0 00-3.083 1.989l-17.06-5.762a3.37 3.37 0 00.355-.71 3.312 3.312 0 00.125-1.743zM4.5 31.1a2.597 2.597 0 112.457-1.746A2.603 2.603 0 014.5 31.1zm23 9a2.6 2.6 0 112.6-2.6 2.603 2.603 0 01-2.6 2.6zm16-13a2.6 2.6 0 01-2.6-2.6c0-.073.003-.146.009-.218A2.6 2.6 0 1143.5 27.1z"/></symbol><symbol id="feature_hosted-data" viewBox="0 0 48 48"><path d="M18 36.9H9.9a9.797 9.797 0 01-3.912-18.78 6.62 6.62 0 01-.013-.42 7.46 7.46 0 017.45-7.45 7.376 7.376 0 012.311.374A11.828 11.828 0 0126.35 4.767 11.768 11.768 0 0138.407 15.05 10.952 10.952 0 0145 33.329V32.1a10.161 10.161 0 00-6.998-16.291l-.325-.035-.031-.326a10.974 10.974 0 00-11.296-9.88A11.006 11.006 0 0016.28 11.3l-.164.315-.333-.126A6.636 6.636 0 006.775 17.7c0 .216.012.429.033.639l.028.298-.278.111A8.997 8.997 0 009.9 36.1H18zm24.9-11.4v17c0 2.208-5.874 3.4-11.4 3.4s-11.4-1.192-11.4-3.4v-17c0-2.208 5.874-3.4 11.4-3.4s11.4 1.192 11.4 3.4zm-22 0c0 1.086 4.033 2.6 10.6 2.6s10.6-1.514 10.6-2.6-4.033-2.6-10.6-2.6-10.6 1.514-10.6 2.6zm21.2 17v-9.694c-1.782 1.366-6.29 2.094-10.6 2.094s-8.818-.728-10.6-2.094V42.5c0 1.086 4.033 2.6 10.6 2.6s10.6-1.514 10.6-2.6zm0-11v-4.694c-1.782 1.366-6.29 2.094-10.6 2.094s-8.818-.728-10.6-2.094V31.5c0 1.086 4.033 2.6 10.6 2.6s10.6-1.514 10.6-2.6z"/></symbol><symbol id="feature_offline" viewBox="0 0 48 48"><path d="M24 31.1c-2.2 0-3.9 1.7-3.9 3.9s1.7 3.9 3.9 3.9 3.9-1.7 3.9-3.9-1.7-3.9-3.9-3.9zm0 7c-1.7 0-3.1-1.4-3.1-3.1 0-1.7 1.4-3.1 3.1-3.1 1.7 0 3.1 1.4 3.1 3.1 0 1.7-1.4 3.1-3.1 3.1zM24 15c5.8 0 11.4 2.3 15.5 6.4l-.6.6c-8.2-8.2-21.6-8.2-29.9 0l-.6-.6C12.6 17.3 18.2 15 24 15zm21.6.1l-.6.5C33.4 4 14.6 4 3 15.6l-.6-.6c11.9-11.8 31.3-11.8 43.2.1zM24 23.2c3.5 0 6.9 1.4 9.4 3.9l-.6.6c-4.9-4.9-12.8-4.9-17.7 0l-.6-.6c2.6-2.6 6-4 9.5-3.9z"/><path d="M23.2 34.7l5.4-5.4-5.4-5.4 1.4-1.5 5.5 5.4 5.4-5.4 1.5 1.5-5.5 5.4 5.5 5.4-1.5 1.5-5.4-5.5-5.5 5.5z"/><path d="M35.5 23.2l.7.7-5.4 5.4 5.4 5.4-.7.7-5.4-5.4-5.4 5.4-.7-.7 5.4-5.4-5.4-5.4.7-.7 5.4 5.4 5.4-5.4m0-1.6l-.8.8-4.6 4.6-4.6-4.6-.8-.8-.8.8-.7.6-.8.8.8.8 4.6 4.6-4.6 4.6-.8.8.8.8.7.7.8.8.8-.8 4.6-4.6 4.6 4.6.8.8.8-.8.7-.7.8-.8-.8-.7-4.6-4.6 4.6-4.6.8-.8-.8-.9-.7-.7-.8-.7z" fill="#fff"/></symbol><symbol id="feature_security" viewBox="0 0 48 48"><path d="M23.483 12.058c-4.671 0-9.4 1.003-9.4 2.919v14.037c0 1.916 4.729 2.92 9.4 2.92s9.4-1.004 9.4-2.92V14.977c0-1.916-4.728-2.919-9.4-2.919zm0 19.075c-5.328 0-8.6-1.234-8.6-2.12V21.33c1.542 1.096 5.087 1.664 8.6 1.664s7.059-.568 8.6-1.664v7.684c0 .885-3.271 2.12-8.6 2.12zm0-8.939c-5.328 0-8.6-1.234-8.6-2.12v-3.59c2.03 1.331 7.338 1.416 8.6 1.416s6.57-.085 8.6-1.417v3.592c0 .885-3.271 2.12-8.6 2.12zm0-5.094c-5.866 0-8.6-1.09-8.6-1.825v-.298c0-.885 3.272-2.12 8.6-2.12s8.6 1.235 8.6 2.12v.298c0 .736-2.733 1.825-8.6 1.825zm17.098-7.599l-.11-1.216-1.222-.062c-6.769-.34-11.608-1.928-14.796-4.857L23.5 2.49l-.953.876C19.36 6.295 14.52 7.884 7.751 8.223l-1.221.062L6.42 9.5c-1.13 12.431-.064 26.35 16.406 35.334l.674.368.674-.368C40.644 35.85 41.71 21.931 40.581 9.5zM23.792 44.133l-.292.158-.292-.158C7.146 35.37 6.11 21.746 7.216 9.573l.048-.525.528-.027c6.961-.348 11.965-2.005 15.296-5.066l.412-.378.412.378c3.33 3.06 8.335 4.718 15.296 5.066l.528.027.048.526c1.106 12.172.07 25.796-15.992 34.559z"/></symbol></defs></svg>